# xmcd
#
# Track frame offsets: 
#        150
#        4047
#        17618
#        28232
#        40316
#        50911
#        54869
#        67168
#        79095
#        92484
#        105784
#        109134
#        120618
#        135735
#        139067
#        153183
#
# Disc length: 2251 seconds
#
# Revision: 0
# Processed by: cddbd v1.5.2PL0 Copyright (c) Steve Scherf et al.
# Submitted via: ExactAudioCopy v0.99pb5
#
DISCID=cb08c910
DTITLE=Short Pockets - Solid Fucking Gold
DYEAR=1900
DGENRE=
TTITLE0=Future Power 1 (Get Up)
TTITLE1=Stay In School
TTITLE2=Self-Help Armageddon
TTITLE3=One For Omar (Death Medley)
TTITLE4=Wanderlusting
TTITLE5=Future Power 2 (Don't Be Late)
TTITLE6=Sucker For Love
TTITLE7=The Big Picture
TTITLE8=Suspiria
TTITLE9=A Series Of Chemical Reactions
TTITLE10=Future Power 3 (Stay Fresh 2099)
TTITLE11=Doomsday
TTITLE12=Paid In Full
TTITLE13=Future Power 4 (Don't Talk To Strangers)
TTITLE14=Repetition/Release
TTITLE15=Delete, Distort, Generalize
EXTD=
EXTT0=
EXTT1=
EXTT2=
EXTT3=
EXTT4=
EXTT5=
EXTT6=
EXTT7=
EXTT8=
EXTT9=
EXTT10=
EXTT11=
EXTT12=
EXTT13=
EXTT14=
EXTT15=
PLAYORDER=
